<?xml version="1.0" standalone="no"?>
<!DOCTYPE svg PUBLIC "-//W3C//DTD SVG 20010904//EN"
 "http://www.w3.org/TR/2001/REC-SVG-20010904/DTD/svg10.dtd">
<svg version="1.0" xmlns="http://www.w3.org/2000/svg"
 width="240.000000pt" height="240.000000pt" viewBox="0 0 240.000000 240.000000"
 preserveAspectRatio="xMidYMid meet">
<metadata>
Created by potrace 1.14, written by Peter Selinger 2001-2017
</metadata>
<g transform="translate(0.000000,240.000000) scale(0.100000,-0.100000)"
fill="#000000" stroke="none">
<path d="M1045 2192 c-47 -16 -83 -43 -111 -83 l-29 -42 0 -366 c0 -361 0
-366 22 -401 26 -42 64 -72 112 -88 23 -8 141 -12 376 -12 l343 0 138 -138
c148 -148 167 -162 211 -162 32 0 80 39 88 73 3 12 5 263 3 558 l-3 535 -25
37 c-14 21 -43 50 -64 65 l-39 27 -501 2 c-276 1 -510 -2 -521 -5z m955 -567
c0 -206 -2 -375 -5 -375 -2 0 -33 29 -67 64 -35 36 -76 70 -91 75 -18 7 -158
11 -383 11 l-354 0 0 300 0 300 450 0 450 0 0 -375z"/>
<path d="M345 1493 c-51 -13 -99 -56 -124 -113 -20 -43 -21 -64 -21 -573 0
-476 2 -532 17 -557 29 -50 87 -64 134 -32 15 9 86 76 159 149 l132 132 362 3
361 3 35 24 c83 57 98 95 99 258 2 143 -5 170 -49 196 -36 21 -64 21 -100 0
-42 -24 -50 -53 -50 -173 l0 -110 -362 0 c-413 0 -375 7 -473 -93 -31 -31 -58
-57 -60 -57 -3 0 -5 169 -5 375 l0 375 110 0 c120 0 149 8 173 50 30 50 16
104 -33 133 -23 14 -53 17 -157 16 -70 -1 -137 -4 -148 -6z"/>
</g>
</svg>
